<svg xmlns="http://www.w3.org/2000/svg" xmlns:xlink="http://www.w3.org/1999/xlink" width="500" zoomAndPan="magnify" viewBox="0 0 375 374.999991" height="500" preserveAspectRatio="xMidYMid meet" version="1.0"><defs><clipPath id="b3f8ebe883"><path d="M 187.5 0 C 83.945312 0 0 83.945312 0 187.5 C 0 291.054688 83.945312 375 187.5 375 C 291.054688 375 375 291.054688 375 187.5 C 375 83.945312 291.054688 0 187.5 0 Z M 187.5 0 " clip-rule="nonzero"/></clipPath><clipPath id="2cac5ae24a"><path d="M 52.765625 209 L 244 209 L 244 300 L 52.765625 300 Z M 52.765625 209 " clip-rule="nonzero"/></clipPath><clipPath id="12b0994961"><path d="M 232 142 L 322.015625 142 L 322.015625 210 L 232 210 Z M 232 142 " clip-rule="nonzero"/></clipPath></defs><g clip-path="url(#b3f8ebe883)"><rect x="-37.5" width="450" fill="#dfffe1" y="-37.499999" height="449.999989" fill-opacity="1"/></g><g clip-path="url(#2cac5ae24a)"><path stroke-linecap="round" transform="matrix(11.21875, 0, 0, 11.21875, 52.765487, 52.765485)" fill="none" stroke-linejoin="round" d="M 16.000013 21.000013 L 16.000013 19.000013 C 16.000013 18.869094 15.993746 18.738175 15.980863 18.607952 C 15.96798 18.477729 15.948829 18.348203 15.923063 18.219721 C 15.897645 18.091239 15.86596 17.96415 15.827659 17.838801 C 15.789707 17.713453 15.745486 17.590194 15.695347 17.469373 C 15.645556 17.348203 15.589498 17.229818 15.52752 17.114567 C 15.46589 16.998969 15.39869 16.886503 15.325918 16.777868 C 15.253147 16.668885 15.175152 16.563732 15.091935 16.462409 C 15.009066 16.361086 14.920974 16.264289 14.828356 16.171671 C 14.735737 16.079052 14.63894 15.99096 14.537617 15.908091 C 14.436294 15.824874 14.331141 15.746879 14.222158 15.674108 C 14.113523 15.601336 14.001057 15.534136 13.885459 15.472158 C 13.770208 15.410528 13.651823 15.35447 13.530654 15.304331 C 13.409832 15.254191 13.286573 15.210319 13.161225 15.172367 C 13.035876 15.134066 12.908787 15.102381 12.780305 15.076963 C 12.651823 15.051197 12.522297 15.032047 12.392074 15.019163 C 12.261851 15.00628 12.130932 15.000013 12.000013 15.000013 L 5.000013 15.000013 C 4.869093 15.000013 4.738174 15.00628 4.607951 15.019163 C 4.477728 15.032047 4.348202 15.051197 4.21972 15.076963 C 4.091238 15.102381 3.964149 15.134066 3.838801 15.172367 C 3.713453 15.210319 3.590194 15.254191 3.469372 15.304331 C 3.348202 15.35447 3.229817 15.410528 3.114567 15.472158 C 2.998968 15.534136 2.886503 15.601336 2.777868 15.674108 C 2.668884 15.746879 2.563731 15.824874 2.462408 15.908091 C 2.361085 15.99096 2.264288 16.079052 2.17167 16.171671 C 2.079051 16.264289 1.990959 16.361086 1.90809 16.462409 C 1.824873 16.563732 1.746879 16.668885 1.674107 16.777868 C 1.601336 16.886503 1.534135 16.998969 1.472157 17.114567 C 1.410528 17.229818 1.354469 17.348203 1.30433 17.469373 C 1.254191 17.590194 1.210319 17.713453 1.172366 17.838801 C 1.134065 17.96415 1.10238 18.091239 1.076962 18.219721 C 1.051196 18.348203 1.032046 18.477729 1.019163 18.607952 C 1.00628 18.738175 1.000012 18.869094 1.000012 19.000013 L 1.000012 21.000013 " stroke="#000000" stroke-width="2" stroke-opacity="1" stroke-miterlimit="4"/></g><path stroke-linecap="round" transform="matrix(11.21875, 0, 0, 11.21875, 52.765487, 52.765485)" fill="none" stroke-linejoin="round" d="M 12.500013 7.000013 C 12.500013 7.130932 12.493745 7.261851 12.480862 7.392074 C 12.467979 7.522297 12.448829 7.651823 12.423063 7.780305 C 12.397645 7.908787 12.36596 8.035876 12.327659 8.161225 C 12.289706 8.286573 12.245486 8.409832 12.195347 8.530654 C 12.145556 8.651823 12.089497 8.770208 12.02752 8.885459 C 11.96589 9.001057 11.89869 9.113523 11.825918 9.222158 C 11.753146 9.331141 11.675152 9.436294 11.591935 9.537617 C 11.509066 9.63894 11.420974 9.735737 11.328355 9.828356 C 11.235737 9.920974 11.13894 10.009066 11.037617 10.091935 C 10.936294 10.175152 10.831141 10.253147 10.722158 10.325918 C 10.613522 10.39869 10.501057 10.46589 10.385458 10.52752 C 10.270208 10.589498 10.151823 10.645556 10.030653 10.695347 C 9.909832 10.745486 9.786573 10.789707 9.661224 10.827659 C 9.535876 10.86596 9.408787 10.897645 9.280305 10.923063 C 9.151823 10.948829 9.022297 10.96798 8.892074 10.980863 C 8.761851 10.993746 8.630932 11.000013 8.500013 11.000013 C 8.369093 11.000013 8.238174 10.993746 8.107951 10.980863 C 7.977729 10.96798 7.848202 10.948829 7.71972 10.923063 C 7.591238 10.897645 7.464149 10.86596 7.338801 10.827659 C 7.213453 10.789707 7.090194 10.745486 6.969372 10.695347 C 6.848202 10.645556 6.729818 10.589498 6.614567 10.52752 C 6.498968 10.46589 6.386503 10.39869 6.277868 10.325918 C 6.168884 10.253147 6.063731 10.175152 5.962408 10.091935 C 5.861085 10.009066 5.764288 9.920974 5.67167 9.828356 C 5.579052 9.735737 5.49096 9.63894 5.408091 9.537617 C 5.324873 9.436294 5.246879 9.331141 5.174107 9.222158 C 5.101336 9.113523 5.034135 9.001057 4.972157 8.885459 C 4.910528 8.770208 4.854469 8.651823 4.80433 8.530654 C 4.754191 8.409832 4.710319 8.286573 4.672366 8.161225 C 4.634065 8.035876 4.60238 7.908787 4.576962 7.780305 C 4.551196 7.651823 4.532046 7.522297 4.519163 7.392074 C 4.50628 7.261851 4.500013 7.130932 4.500013 7.000013 C 4.500013 6.869094 4.50628 6.738174 4.519163 6.607951 C 4.532046 6.477729 4.551196 6.348202 4.576962 6.21972 C 4.60238 6.091238 4.634065 5.964149 4.672366 5.838801 C 4.710319 5.713453 4.754191 5.590194 4.80433 5.469372 C 4.854469 5.348202 4.910528 5.229818 4.972157 5.114567 C 5.034135 4.998968 5.101336 4.886503 5.174107 4.777868 C 5.246879 4.668885 5.324873 4.563731 5.408091 4.462408 C 5.49096 4.361085 5.579052 4.264288 5.67167 4.17167 C 5.764288 4.079052 5.861085 3.99096 5.962408 3.908091 C 6.063731 3.824873 6.168884 3.746879 6.277868 3.674107 C 6.386503 3.601336 6.498968 3.534135 6.614567 3.472157 C 6.729818 3.410528 6.848202 3.354469 6.969372 3.30433 C 7.090194 3.254191 7.213453 3.210319 7.338801 3.172366 C 7.464149 3.134066 7.591238 3.10238 7.71972 3.076962 C 7.848202 3.051196 7.977729 3.032046 8.107951 3.019163 C 8.238174 3.00628 8.369093 3.000013 8.500013 3.000013 C 8.630932 3.000013 8.761851 3.00628 8.892074 3.019163 C 9.022297 3.032046 9.151823 3.051196 9.280305 3.076962 C 9.408787 3.10238 9.535876 3.134066 9.661224 3.172366 C 9.786573 3.210319 9.909832 3.254191 10.030653 3.30433 C 10.151823 3.354469 10.270208 3.410528 10.385458 3.472157 C 10.501057 3.534135 10.613522 3.601336 10.722158 3.674107 C 10.831141 3.746879 10.936294 3.824873 11.037617 3.908091 C 11.13894 3.99096 11.235737 4.079052 11.328355 4.17167 C 11.420974 4.264288 11.509066 4.361085 11.591935 4.462408 C 11.675152 4.563731 11.753146 4.668885 11.825918 4.777868 C 11.89869 4.886503 11.96589 4.998968 12.02752 5.114567 C 12.089497 5.229818 12.145556 5.348202 12.195347 5.469372 C 12.245486 5.590194 12.289706 5.713453 12.327659 5.838801 C 12.36596 5.964149 12.397645 6.091238 12.423063 6.21972 C 12.448829 6.348202 12.467979 6.477729 12.480862 6.607951 C 12.493745 6.738174 12.500013 6.869094 12.500013 7.000013 Z M 12.500013 7.000013 " stroke="#000000" stroke-width="2" stroke-opacity="1" stroke-miterlimit="4"/><g clip-path="url(#12b0994961)"><path stroke-linecap="round" transform="matrix(11.21875, 0, 0, 11.21875, 52.765487, 52.765485)" fill="none" stroke-linejoin="round" d="M 17.000013 11.000013 L 19.000013 13.000013 L 23.000013 9.000013 " stroke="#000000" stroke-width="2" stroke-opacity="1" stroke-miterlimit="4"/></g></svg>