<svg xmlns="http://www.w3.org/2000/svg" xmlns:xlink="http://www.w3.org/1999/xlink" width="500" zoomAndPan="magnify" viewBox="0 0 375 374.999991" height="500" preserveAspectRatio="xMidYMid meet" version="1.0"><path fill="#4267b2" d="M 92.867188 0 L 282.132812 0 C 283.652344 0 285.171875 0.0390625 286.691406 0.113281 C 288.207031 0.1875 289.722656 0.296875 291.234375 0.445312 C 292.75 0.597656 294.257812 0.78125 295.761719 1.003906 C 297.261719 1.226562 298.761719 1.488281 300.25 1.785156 C 301.742188 2.082031 303.222656 2.414062 304.699219 2.78125 C 306.171875 3.152344 307.636719 3.558594 309.089844 4 C 310.546875 4.441406 311.988281 4.917969 313.417969 5.429688 C 314.851562 5.941406 316.269531 6.488281 317.671875 7.070312 C 319.074219 7.652344 320.464844 8.265625 321.839844 8.917969 C 323.214844 9.566406 324.570312 10.25 325.910156 10.964844 C 327.25 11.683594 328.574219 12.429688 329.875 13.210938 C 331.179688 13.992188 332.464844 14.804688 333.726562 15.652344 C 334.992188 16.496094 336.234375 17.371094 337.453125 18.277344 C 338.675781 19.179688 339.871094 20.117188 341.046875 21.078125 C 342.222656 22.042969 343.371094 23.035156 344.5 24.058594 C 345.625 25.078125 346.726562 26.125 347.800781 27.199219 C 348.875 28.273438 349.921875 29.375 350.941406 30.5 C 351.964844 31.628906 352.957031 32.777344 353.921875 33.953125 C 354.882812 35.128906 355.820312 36.324219 356.722656 37.546875 C 357.628906 38.765625 358.503906 40.007812 359.347656 41.273438 C 360.195312 42.535156 361.007812 43.820312 361.789062 45.125 C 362.570312 46.425781 363.316406 47.75 364.035156 49.089844 C 364.75 50.429688 365.433594 51.785156 366.082031 53.160156 C 366.734375 54.535156 367.347656 55.921875 367.929688 57.328125 C 368.511719 58.730469 369.058594 60.148438 369.570312 61.582031 C 370.082031 63.011719 370.558594 64.453125 371 65.910156 C 371.441406 67.363281 371.847656 68.828125 372.21875 70.300781 C 372.585938 71.777344 372.917969 73.257812 373.214844 74.75 C 373.511719 76.238281 373.773438 77.738281 373.996094 79.238281 C 374.21875 80.742188 374.402344 82.25 374.554688 83.765625 C 374.703125 85.277344 374.8125 86.792969 374.886719 88.308594 C 374.960938 89.828125 375 91.347656 375 92.867188 L 375 282.132812 C 375 283.652344 374.960938 285.171875 374.886719 286.691406 C 374.8125 288.207031 374.703125 289.722656 374.554688 291.234375 C 374.402344 292.75 374.21875 294.257812 373.996094 295.761719 C 373.773438 297.261719 373.511719 298.761719 373.214844 300.25 C 372.917969 301.742188 372.585938 303.222656 372.21875 304.699219 C 371.847656 306.171875 371.441406 307.636719 371 309.089844 C 370.558594 310.546875 370.082031 311.988281 369.570312 313.417969 C 369.058594 314.851562 368.511719 316.269531 367.929688 317.671875 C 367.347656 319.074219 366.734375 320.464844 366.082031 321.839844 C 365.433594 323.214844 364.75 324.570312 364.035156 325.910156 C 363.316406 327.25 362.570312 328.574219 361.789062 329.875 C 361.007812 331.179688 360.195312 332.464844 359.347656 333.726562 C 358.503906 334.992188 357.628906 336.234375 356.722656 337.453125 C 355.820312 338.675781 354.882812 339.871094 353.921875 341.046875 C 352.957031 342.222656 351.964844 343.371094 350.941406 344.5 C 349.921875 345.625 348.875 346.726562 347.800781 347.800781 C 346.726562 348.875 345.625 349.921875 344.5 350.941406 C 343.371094 351.964844 342.222656 352.957031 341.046875 353.921875 C 339.871094 354.882812 338.675781 355.820312 337.453125 356.722656 C 336.234375 357.628906 334.992188 358.503906 333.726562 359.347656 C 332.464844 360.195312 331.179688 361.007812 329.875 361.789062 C 328.574219 362.570312 327.25 363.316406 325.910156 364.035156 C 324.570312 364.75 323.214844 365.433594 321.839844 366.082031 C 320.464844 366.734375 319.074219 367.347656 317.671875 367.929688 C 316.269531 368.511719 314.851562 369.058594 313.417969 369.570312 C 311.988281 370.082031 310.546875 370.558594 309.089844 371 C 307.636719 371.441406 306.171875 371.847656 304.699219 372.21875 C 303.222656 372.585938 301.742188 372.917969 300.25 373.214844 C 298.761719 373.511719 297.261719 373.773438 295.761719 373.996094 C 294.257812 374.21875 292.75 374.402344 291.234375 374.554688 C 289.722656 374.703125 288.207031 374.8125 286.691406 374.886719 C 285.171875 374.960938 283.652344 375 282.132812 375 L 92.867188 375 C 91.347656 375 89.828125 374.960938 88.308594 374.886719 C 86.792969 374.8125 85.277344 374.703125 83.765625 374.554688 C 82.25 374.402344 80.742188 374.21875 79.238281 373.996094 C 77.738281 373.773438 76.238281 373.511719 74.75 373.214844 C 73.257812 372.917969 71.777344 372.585938 70.300781 372.21875 C 68.828125 371.847656 67.363281 371.441406 65.910156 371 C 64.453125 370.558594 63.011719 370.082031 61.582031 369.570312 C 60.148438 369.058594 58.730469 368.511719 57.328125 367.929688 C 55.921875 367.347656 54.535156 366.734375 53.160156 366.082031 C 51.785156 365.433594 50.429688 364.75 49.089844 364.035156 C 47.75 363.316406 46.425781 362.570312 45.125 361.789062 C 43.820312 361.007812 42.535156 360.195312 41.273438 359.347656 C 40.007812 358.503906 38.765625 357.628906 37.546875 356.722656 C 36.324219 355.820312 35.128906 354.882812 33.953125 353.921875 C 32.777344 352.957031 31.628906 351.964844 30.5 350.941406 C 29.375 349.921875 28.273438 348.875 27.199219 347.800781 C 26.125 346.726562 25.078125 345.625 24.058594 344.5 C 23.035156 343.371094 22.042969 342.222656 21.078125 341.046875 C 20.117188 339.871094 19.179688 338.675781 18.277344 337.453125 C 17.371094 336.234375 16.496094 334.992188 15.652344 333.726562 C 14.804688 332.464844 13.992188 331.179688 13.210938 329.875 C 12.429688 328.574219 11.683594 327.25 10.964844 325.910156 C 10.25 324.570312 9.566406 323.214844 8.917969 321.839844 C 8.265625 320.464844 7.652344 319.074219 7.070312 317.671875 C 6.488281 316.269531 5.941406 314.851562 5.429688 313.417969 C 4.917969 311.988281 4.441406 310.546875 4 309.089844 C 3.558594 307.636719 3.152344 306.171875 2.78125 304.699219 C 2.414062 303.222656 2.082031 301.742188 1.785156 300.25 C 1.488281 298.761719 1.226562 297.261719 1.003906 295.761719 C 0.78125 294.257812 0.597656 292.75 0.445312 291.234375 C 0.296875 289.722656 0.1875 288.207031 0.113281 286.691406 C 0.0390625 285.171875 0 283.652344 0 282.132812 L 0 92.867188 C 0 91.347656 0.0390625 89.828125 0.113281 88.308594 C 0.1875 86.792969 0.296875 85.277344 0.445312 83.765625 C 0.597656 82.25 0.78125 80.742188 1.003906 79.238281 C 1.226562 77.738281 1.488281 76.238281 1.785156 74.75 C 2.082031 73.257812 2.414062 71.777344 2.78125 70.300781 C 3.152344 68.828125 3.558594 67.363281 4 65.910156 C 4.441406 64.453125 4.917969 63.011719 5.429688 61.582031 C 5.941406 60.148438 6.488281 58.730469 7.070312 57.328125 C 7.652344 55.921875 8.265625 54.535156 8.917969 53.160156 C 9.566406 51.785156 10.25 50.429688 10.964844 49.089844 C 11.683594 47.75 12.429688 46.425781 13.210938 45.125 C 13.992188 43.820312 14.804688 42.535156 15.652344 41.273438 C 16.496094 40.007812 17.371094 38.765625 18.277344 37.546875 C 19.179688 36.324219 20.117188 35.128906 21.078125 33.953125 C 22.042969 32.777344 23.035156 31.628906 24.058594 30.5 C 25.078125 29.375 26.125 28.273438 27.199219 27.199219 C 28.273438 26.125 29.375 25.078125 30.5 24.058594 C 31.628906 23.035156 32.777344 22.042969 33.953125 21.078125 C 35.128906 20.117188 36.324219 19.179688 37.546875 18.277344 C 38.765625 17.371094 40.007812 16.496094 41.273438 15.652344 C 42.535156 14.804688 43.820312 13.992188 45.125 13.210938 C 46.425781 12.429688 47.75 11.683594 49.089844 10.964844 C 50.429688 10.25 51.785156 9.566406 53.160156 8.917969 C 54.535156 8.265625 55.921875 7.652344 57.328125 7.070312 C 58.730469 6.488281 60.148438 5.941406 61.582031 5.429688 C 63.011719 4.917969 64.453125 4.441406 65.910156 4 C 67.363281 3.558594 68.828125 3.152344 70.300781 2.78125 C 71.777344 2.414062 73.257812 2.082031 74.75 1.785156 C 76.238281 1.488281 77.738281 1.226562 79.238281 1.003906 C 80.742188 0.78125 82.25 0.597656 83.765625 0.445312 C 85.277344 0.296875 86.792969 0.1875 88.308594 0.113281 C 89.828125 0.0390625 91.347656 0 92.867188 0 Z M 92.867188 0 " fill-opacity="1" fill-rule="nonzero"/><path stroke-linecap="butt" transform="matrix(0.841751, 0, 0, 0.841751, -14.941069, -10.016834)" fill-opacity="1" fill="#4267b2" fill-rule="nonzero" stroke-linejoin="miter" d="M 462.697796 234.598973 C 462.697796 238.237223 462.609624 241.870833 462.43328 245.504443 C 462.252296 249.133412 461.98778 252.762381 461.630452 256.377428 C 461.273124 259.997116 460.827624 263.607522 460.293952 267.204007 C 459.76028 270.800492 459.138436 274.383054 458.428421 277.947055 C 457.723046 281.515696 456.924858 285.061133 456.043139 288.588009 C 455.15678 292.119525 454.186889 295.623197 453.133467 299.099025 C 452.075404 302.579494 450.938451 306.03212 449.713326 309.456901 C 448.488201 312.881683 447.179545 316.27398 445.787357 319.633793 C 444.395169 322.993605 442.919451 326.316293 441.364841 329.601856 C 439.810232 332.892059 438.176731 336.135857 436.464341 339.342529 C 434.747309 342.549201 432.956028 345.714107 431.085856 348.832608 C 429.215684 351.951108 427.271262 355.023202 425.25259 358.04889 C 423.233918 361.069937 421.140996 364.044578 418.973823 366.963531 C 416.806651 369.887125 414.56987 372.750391 412.263479 375.56261 C 409.957088 378.374829 407.581088 381.12672 405.140119 383.818283 C 402.69915 386.514486 400.188572 389.145721 397.617665 391.721268 C 395.046759 394.292174 392.415524 396.798112 389.719321 399.239081 C 387.027758 401.68005 384.271227 404.05605 381.463648 406.362441 C 378.651429 408.668832 375.783523 410.905613 372.864569 413.072785 C 369.945616 415.239957 366.970975 417.332879 363.949928 419.351551 C 360.92424 421.374864 357.852146 423.319286 354.733646 425.189458 C 351.615146 427.05499 348.450239 428.850912 345.243567 430.563302 C 342.036895 432.275693 338.788457 433.913834 335.502894 435.468443 C 332.217332 437.023053 328.890003 438.494131 325.53019 439.886319 C 322.170378 441.278506 318.782721 442.587163 315.357939 443.812288 C 311.933158 445.037413 308.480533 446.174366 305.000064 447.232429 C 301.519595 448.285851 298.015922 449.255741 294.489047 450.142101 C 290.962172 451.02382 287.416734 451.822007 283.848093 452.532023 C 280.284093 453.242039 276.70153 453.859242 273.105045 454.392914 C 269.508561 454.926586 265.898154 455.372086 262.278466 455.729414 C 258.658778 456.086742 255.03445 456.355898 251.40084 456.532242 C 247.771871 456.708586 244.138261 456.801398 240.500011 456.801398 C 236.861761 456.801398 233.228151 456.708586 229.599182 456.532242 C 225.965572 456.355898 222.341244 456.086742 218.721556 455.729414 C 215.101868 455.372086 211.491462 454.926586 207.894977 454.392914 C 204.298492 453.859242 200.71593 453.242039 197.151929 452.532023 C 193.583288 451.822007 190.03785 451.02382 186.510975 450.142101 C 182.9841 449.255741 179.480428 448.285851 175.999959 447.232429 C 172.51949 446.174366 169.066864 445.037413 165.642083 443.812288 C 162.217301 442.587163 158.829645 441.278506 155.469832 439.886319 C 152.110019 438.494131 148.782691 437.023053 145.497128 435.468443 C 142.211565 433.913834 138.963127 432.275693 135.756455 430.563302 C 132.549783 428.850912 129.384876 427.05499 126.266376 425.189458 C 123.147876 423.319286 120.075782 421.374864 117.050094 419.351551 C 114.029047 417.332879 111.054406 415.239957 108.135453 413.072785 C 105.216499 410.905613 102.348593 408.668832 99.536374 406.362441 C 96.728796 404.05605 93.972264 401.68005 91.280701 399.239081 C 88.584498 396.798112 85.953263 394.292174 83.382357 391.721268 C 80.81145 389.145721 78.300872 386.514486 75.859903 383.818283 C 73.418934 381.12672 71.042934 378.374829 68.736543 375.56261 C 66.430152 372.750391 64.193371 369.887125 62.026199 366.963531 C 59.859027 364.044578 57.766105 361.069937 55.747433 358.04889 C 53.728761 355.023202 51.784338 351.951108 49.914166 348.832608 C 48.043994 345.714107 46.252713 342.549201 44.535682 339.342529 C 42.823291 336.135857 41.189791 332.892059 39.635181 329.601856 C 38.080572 326.316293 36.604853 322.993605 35.212665 319.633793 C 33.820478 316.27398 32.511821 312.881683 31.286696 309.456901 C 30.061571 306.03212 28.924618 302.579494 27.866555 299.099025 C 26.813133 295.623197 25.843242 292.119525 24.956883 288.588009 C 24.075164 285.061133 23.276977 281.515696 22.571602 277.947055 C 21.861586 274.383054 21.239742 270.800492 20.70607 267.204007 C 20.172398 263.607522 19.726898 259.997116 19.36957 256.377428 C 19.012242 252.762381 18.747726 249.133412 18.566742 245.504443 C 18.390398 241.870833 18.302226 238.237223 18.302226 234.598973 C 18.302226 230.965363 18.390398 227.327113 18.566742 223.698144 C 18.747726 220.064534 19.012242 216.440206 19.36957 212.820518 C 19.726898 209.20083 20.172398 205.595064 20.70607 201.998579 C 21.239742 198.397454 21.861586 194.819532 22.571602 191.250891 C 23.276977 187.68225 24.075164 184.136812 24.956883 180.609937 C 25.843242 177.083062 26.813133 173.579389 27.866555 170.09892 C 28.924618 166.618451 30.061571 163.165826 31.286696 159.741044 C 32.511821 156.320904 33.820478 152.928606 35.212665 149.568794 C 36.604853 146.208981 38.080572 142.886293 39.635181 139.59609 C 41.189791 136.310527 42.823291 133.062089 44.535682 129.855417 C 46.252713 126.648745 48.043994 123.483838 49.914166 120.365338 C 51.784338 117.246838 53.728761 114.174744 55.747433 111.153696 C 57.766105 108.128009 59.859027 105.158008 62.026199 102.234414 C 64.193371 99.315461 66.430152 96.447555 68.736543 93.639976 C 71.042934 90.827757 73.418934 88.075866 75.859903 85.379663 C 78.300872 82.68346 80.81145 80.052225 83.382357 77.481319 C 85.953263 74.910412 88.584498 72.404474 91.280701 69.958865 C 93.972264 67.517896 96.728796 65.141896 99.536374 62.835505 C 102.348593 60.529114 105.216499 58.292333 108.135453 56.12516 C 111.054406 53.962629 114.029047 51.869707 117.050094 49.846394 C 120.075782 47.827722 123.147876 45.8833 126.266376 44.013128 C 129.384876 42.142956 132.549783 40.351675 135.756455 38.639284 C 138.963127 36.922253 142.211565 35.288752 145.497128 33.734143 C 148.782691 32.179533 152.110019 30.703815 155.469832 29.316268 C 158.829645 27.92408 162.217301 26.615424 165.642083 25.390298 C 169.066864 24.165173 172.51949 23.023579 175.999959 21.970157 C 179.480428 20.912095 182.9841 19.942204 186.510975 19.060485 C 190.03785 18.174126 193.583288 17.380579 197.151929 16.670563 C 200.71593 15.960548 204.298492 15.338704 207.894977 14.805032 C 211.491462 14.27136 215.101868 13.82586 218.721556 13.468532 C 222.341244 13.115844 225.965572 12.846688 229.599182 12.665704 C 233.228151 12.48936 236.861761 12.401188 240.500011 12.401188 C 244.138261 12.401188 247.771871 12.48936 251.40084 12.665704 C 255.03445 12.846688 258.658778 13.115844 262.278466 13.468532 C 265.898154 13.82586 269.508561 14.27136 273.105045 14.805032 C 276.70153 15.338704 280.284093 15.960548 283.848093 16.670563 C 287.416734 17.380579 290.962172 18.174126 294.489047 19.060485 C 298.015922 19.942204 301.519595 20.912095 305.000064 21.970157 C 308.480533 23.023579 311.933158 24.165173 315.357939 25.390298 C 318.782721 26.615424 322.170378 27.92408 325.53019 29.316268 C 328.890003 30.703815 332.217332 32.179533 335.502894 33.734143 C 338.788457 35.288752 342.036895 36.922253 345.243567 38.639284 C 348.450239 40.351675 351.615146 42.142956 354.733646 44.013128 C 357.852146 45.8833 360.92424 47.827722 363.949928 49.846394 C 366.970975 51.869707 369.945616 53.962629 372.864569 56.12516 C 375.783523 58.292333 378.651429 60.529114 381.463648 62.835505 C 384.271227 65.141896 387.027758 67.517896 389.719321 69.958865 C 392.415524 72.404474 395.046759 74.910412 397.617665 77.481319 C 400.188572 80.052225 402.69915 82.68346 405.140119 85.379663 C 407.581088 88.075866 409.957088 90.827757 412.263479 93.639976 C 414.56987 96.447555 416.806651 99.315461 418.973823 102.234414 C 421.140996 105.158008 423.233918 108.128009 425.25259 111.153696 C 427.271262 114.174744 429.215684 117.246838 431.085856 120.365338 C 432.956028 123.483838 434.747309 126.648745 436.464341 129.855417 C 438.176731 133.062089 439.810232 136.310527 441.364841 139.59609 C 442.919451 142.886293 444.395169 146.208981 445.787357 149.568794 C 447.179545 152.928606 448.488201 156.320904 449.713326 159.741044 C 450.938451 163.165826 452.075404 166.618451 453.133467 170.09892 C 454.186889 173.579389 455.15678 177.083062 456.043139 180.609937 C 456.924858 184.136812 457.723046 187.68225 458.428421 191.250891 C 459.138436 194.819532 459.76028 198.397454 460.293952 201.998579 C 460.827624 205.595064 461.273124 209.20083 461.630452 212.820518 C 461.98778 216.440206 462.252296 220.064534 462.43328 223.698144 C 462.609624 227.327113 462.697796 230.965363 462.697796 234.598973 Z M 462.697796 234.598973 " stroke="#4267b2" stroke-width="1" stroke-opacity="1" stroke-miterlimit="10"/><path stroke-linecap="butt" transform="matrix(0.841751, 0, 0, 0.841751, -14.941069, -10.016834)" fill-opacity="1" fill="#ffffff" fill-rule="nonzero" stroke-linejoin="miter" d="M 292.697766 78.001069 C 274.99842 81.19846 268.900639 84.200944 258.700544 90.001726 C 247.799715 96.201601 240.19837 102.698477 235.00087 107.998071 C 218.002259 125.599963 214.201587 141.999934 210.999555 154.701325 C 206.201149 173.398405 206.697696 191.000297 206.697696 191.000297 L 206.697696 204.699423 L 171.002005 204.699423 L 171.002005 266.800272 L 206.697696 266.800272 L 206.697696 454.300101 C 217.700619 455.99857 229.000541 456.898851 240.500011 456.898851 C 257.498622 456.898851 274.098139 455.000836 290.001562 451.39971 L 290.001562 266.800272 L 344.30152 266.800272 L 344.30152 204.699423 L 290.001562 204.699423 L 290.001562 191.501485 C 290.001562 191.501485 290.001562 189.102281 290.001562 188.800641 C 290.001562 188.499 290.001562 188.099906 290.001562 187.798266 C 290.001562 185.102062 290.099015 181.101843 290.702297 177.598171 C 292.201219 168.497905 295.301156 161.397748 300.498657 155.100419 C 306.498986 147.898168 313.501689 144.798231 321.29794 143.600949 C 340.598301 140.598465 356.701271 147.299528 356.701271 147.299528 L 359.699115 82.001288 C 359.699115 82.001288 347.601005 78.098522 327.599909 76.701693 C 313.501689 75.699318 300.999844 76.502147 292.697766 78.001069 Z M 292.697766 78.001069 " stroke="#ffffff" stroke-width="1" stroke-opacity="1" stroke-miterlimit="10"/></svg>