<svg xmlns="http://www.w3.org/2000/svg" xmlns:xlink="http://www.w3.org/1999/xlink" width="500" zoomAndPan="magnify" viewBox="0 0 375 374.999991" height="500" preserveAspectRatio="xMidYMid meet" version="1.0"><defs><clipPath id="2bec20eca8"><path d="M 187.5 0 C 83.945312 0 0 83.945312 0 187.5 C 0 291.054688 83.945312 375 187.5 375 C 291.054688 375 375 291.054688 375 187.5 C 375 83.945312 291.054688 0 187.5 0 Z M 187.5 0 " clip-rule="nonzero"/></clipPath></defs><g clip-path="url(#2bec20eca8)"><rect x="-37.5" width="450" fill="#dfffe1" y="-37.499999" height="449.999989" fill-opacity="1"/></g><path stroke-linecap="round" transform="matrix(12.999999, 0, 0, 12.999999, 31.360622, 34.762164)" fill="none" stroke-linejoin="round" d="M 4.999904 10.999966 L 18.999905 10.999966 C 19.06541 10.999966 19.130914 11.003271 19.196119 11.009582 C 19.261323 11.016192 19.325926 11.025507 19.390229 11.038428 C 19.454532 11.051348 19.517934 11.066973 19.580434 11.086204 C 19.643234 11.105134 19.704833 11.12707 19.765229 11.15231 C 19.825926 11.17725 19.885121 11.205195 19.942814 11.236144 C 20.000506 11.267094 20.056696 11.300747 20.111083 11.337106 C 20.16547 11.373464 20.218054 11.412526 20.268835 11.453993 C 20.319316 11.495459 20.367994 11.539329 20.414268 11.585904 C 20.460542 11.632178 20.504412 11.680555 20.545878 11.731336 C 20.587645 11.781817 20.626407 11.834401 20.663066 11.888788 C 20.699424 11.943175 20.733078 11.999365 20.763727 12.057058 C 20.794677 12.11505 20.822621 12.174245 20.847862 12.234642 C 20.872802 12.295038 20.894737 12.356637 20.913967 12.419437 C 20.932898 12.482238 20.948823 12.545639 20.961443 12.609942 C 20.974364 12.673945 20.983979 12.738848 20.99029 12.804053 C 20.9969 12.869257 20.999905 12.934461 20.999905 12.999966 L 20.999905 19.999967 C 20.999905 20.065471 20.9969 20.130976 20.99029 20.19618 C 20.983979 20.261084 20.974364 20.325988 20.961443 20.390291 C 20.948823 20.454293 20.932898 20.517995 20.913967 20.580495 C 20.894737 20.643296 20.872802 20.704894 20.847862 20.765291 C 20.822621 20.825988 20.794677 20.884882 20.763727 20.942875 C 20.733078 21.000568 20.699424 21.056757 20.663066 21.111144 C 20.626407 21.165531 20.587645 21.218116 20.545878 21.268897 C 20.504412 21.319378 20.460542 21.367755 20.414268 21.41433 C 20.367994 21.460604 20.319316 21.504474 20.268835 21.54594 C 20.218054 21.587707 20.16547 21.626469 20.111083 21.662827 C 20.056696 21.699185 20.000506 21.732839 19.942814 21.763789 C 19.885121 21.794738 19.825926 21.822683 19.765229 21.847623 C 19.704833 21.872863 19.643234 21.894798 19.580434 21.914029 C 19.517934 21.932959 19.454532 21.948885 19.390229 21.961505 C 19.325926 21.974426 19.261323 21.984041 19.196119 21.990351 C 19.130914 21.996661 19.06541 21.999967 18.999905 21.999967 L 4.999904 21.999967 C 4.934399 21.999967 4.869195 21.996661 4.803991 21.990351 C 4.738786 21.984041 4.674183 21.974426 4.60988 21.961505 C 4.545577 21.948885 4.482176 21.932959 4.419375 21.914029 C 4.356875 21.894798 4.295277 21.872863 4.23458 21.847623 C 4.174183 21.822683 4.114988 21.794738 4.057296 21.763789 C 3.999303 21.732839 3.943414 21.699185 3.888726 21.662827 C 3.834339 21.626469 3.781755 21.587707 3.731274 21.54594 C 3.680493 21.504474 3.632116 21.460604 3.585842 21.41433 C 3.539568 21.367755 3.495397 21.319378 3.453931 21.268897 C 3.412464 21.218116 3.373402 21.165531 3.337044 21.111144 C 3.300685 21.056757 3.267032 21.000568 3.236082 20.942875 C 3.205133 20.884882 3.177188 20.825988 3.152248 20.765291 C 3.127308 20.704894 3.105072 20.643296 3.086142 20.580495 C 3.067212 20.517995 3.051286 20.454293 3.038366 20.390291 C 3.025746 20.325988 3.01613 20.261084 3.00952 20.19618 C 3.003209 20.130976 2.999904 20.065471 2.999904 19.999967 L 2.999904 12.999966 C 2.999904 12.934461 3.003209 12.869257 3.00952 12.804053 C 3.01613 12.738848 3.025746 12.673945 3.038366 12.609942 C 3.051286 12.545639 3.067212 12.482238 3.086142 12.419437 C 3.105072 12.356637 3.127308 12.295038 3.152248 12.234642 C 3.177188 12.174245 3.205133 12.11505 3.236082 12.057058 C 3.267032 11.999365 3.300685 11.943175 3.337044 11.888788 C 3.373402 11.834401 3.412464 11.781817 3.453931 11.731336 C 3.495397 11.680555 3.539568 11.632178 3.585842 11.585904 C 3.632116 11.539329 3.680493 11.495459 3.731274 11.453993 C 3.781755 11.412526 3.834339 11.373464 3.888726 11.337106 C 3.943414 11.300747 3.999303 11.267094 4.057296 11.236144 C 4.114988 11.205195 4.174183 11.17725 4.23458 11.15231 C 4.295277 11.12707 4.356875 11.105134 4.419375 11.086204 C 4.482176 11.066973 4.545577 11.051348 4.60988 11.038428 C 4.674183 11.025507 4.738786 11.016192 4.803991 11.009582 C 4.869195 11.003271 4.934399 10.999966 4.999904 10.999966 Z M 4.999904 10.999966 " stroke="#000000" stroke-width="2" stroke-opacity="1" stroke-miterlimit="4"/><path stroke-linecap="round" transform="matrix(12.999999, 0, 0, 12.999999, 31.360622, 34.762164)" fill="none" stroke-linejoin="round" d="M 6.999904 10.999966 L 6.999904 6.999966 C 6.999904 6.918235 7.002008 6.836504 7.005914 6.754774 C 7.010121 6.673043 7.01613 6.591312 7.023943 6.509882 C 7.032056 6.428452 7.041972 6.347322 7.053991 6.266492 C 7.06601 6.185363 7.080133 6.104834 7.096058 6.024605 C 7.111984 5.944377 7.130013 5.864449 7.149844 5.785122 C 7.169676 5.705795 7.191611 5.626769 7.215349 5.548644 C 7.239087 5.470218 7.264628 5.392694 7.292272 5.315471 C 7.319916 5.238548 7.349363 5.162226 7.380613 5.086504 C 7.411863 5.011084 7.444916 4.936264 7.480073 4.862346 C 7.514928 4.788127 7.551888 4.71511 7.590349 4.642995 C 7.629111 4.570879 7.669376 4.499665 7.711443 4.429353 C 7.75351 4.359341 7.79708 4.29023 7.842753 4.222021 C 7.888126 4.154113 7.935301 4.087105 7.983979 4.021601 C 8.032657 3.955795 8.083138 3.891192 8.13482 3.828091 C 8.186803 3.764689 8.240289 3.70279 8.295277 3.642093 C 8.350265 3.581697 8.406455 3.522201 8.464448 3.464509 C 8.52244 3.406516 8.581635 3.350326 8.642332 3.295338 C 8.702729 3.24035 8.764928 3.186865 8.828029 3.134882 C 8.891431 3.082899 8.955734 3.032718 9.021539 2.98404 C 9.087344 2.935362 9.154051 2.888187 9.22226 2.842514 C 9.290169 2.797141 9.359279 2.753572 9.429592 2.711504 C 9.499604 2.669437 9.570818 2.628872 9.642933 2.590411 C 9.715049 2.551949 9.788366 2.51499 9.862284 2.480134 C 9.936203 2.444978 10.011022 2.411925 10.086443 2.380675 C 10.162164 2.349425 10.238486 2.319978 10.315409 2.292334 C 10.392633 2.264689 10.470157 2.239149 10.548582 2.215411 C 10.627008 2.191673 10.705734 2.169737 10.785061 2.149906 C 10.864388 2.130074 10.944316 2.112045 11.024544 2.09612 C 11.104772 2.080194 11.185301 2.066072 11.266431 2.054052 C 11.34726 2.042033 11.42839 2.032117 11.50982 2.024004 C 11.591251 2.016192 11.672981 2.010182 11.754712 2.005975 C 11.836443 2.002069 11.918174 1.999966 11.999905 1.999966 C 12.081936 1.999966 12.163667 2.002069 12.245397 2.005975 C 12.327128 2.010182 12.408558 2.016192 12.489989 2.024004 C 12.571419 2.032117 12.652849 2.042033 12.733679 2.054052 C 12.814508 2.066072 12.895337 2.080194 12.975566 2.09612 C 13.055794 2.112045 13.135421 2.130074 13.215049 2.149906 C 13.294376 2.169737 13.373102 2.191673 13.451527 2.215411 C 13.529652 2.239149 13.607477 2.264689 13.6844 2.292334 C 13.761623 2.319978 13.837945 2.349425 13.913366 2.380675 C 13.989087 2.411925 14.063907 2.444978 14.137825 2.480134 C 14.211744 2.51499 14.28476 2.551949 14.356876 2.590411 C 14.429292 2.628872 14.500205 2.669437 14.570518 2.711504 C 14.64083 2.753572 14.709941 2.797141 14.777849 2.842514 C 14.845758 2.888187 14.912765 2.935362 14.978571 2.98404 C 15.044075 3.032718 15.108679 3.082899 15.17208 3.134882 C 15.235181 3.186865 15.29708 3.24035 15.357777 3.295338 C 15.418474 3.350326 15.477669 3.406516 15.535662 3.464509 C 15.593354 3.522201 15.649845 3.581697 15.704833 3.642093 C 15.759821 3.70279 15.813006 3.764689 15.864989 3.828091 C 15.916972 3.891192 15.967152 3.955795 16.016131 4.021601 C 16.064809 4.087105 16.111984 4.154113 16.157357 4.222021 C 16.202729 4.29023 16.246599 4.359341 16.288667 4.429353 C 16.330734 4.499665 16.370998 4.570879 16.40946 4.642995 C 16.448222 4.71511 16.484881 4.788127 16.520037 4.862346 C 16.554893 4.936264 16.587946 5.011084 16.619496 5.086504 C 16.650746 5.162226 16.680193 5.238548 16.707837 5.315471 C 16.735181 5.392694 16.761023 5.470218 16.784761 5.548644 C 16.808498 5.626769 16.830133 5.705795 16.850265 5.785122 C 16.870097 5.864449 16.887825 5.944377 16.904051 6.024605 C 16.919977 6.104834 16.933799 6.185363 16.945818 6.266492 C 16.957837 6.347322 16.967753 6.428452 16.975866 6.509882 C 16.983979 6.591312 16.989989 6.673043 16.993895 6.754774 C 16.998102 6.836504 16.999905 6.918235 16.999905 6.999966 L 16.999905 10.999966 " stroke="#000000" stroke-width="2" stroke-opacity="1" stroke-miterlimit="4"/></svg>